<svg width="20" height="20" viewBox="0 0 20 20" fill="none" xmlns="http://www.w3.org/2000/svg">
  <path
    d="M10 17.619C14.2079 17.619 17.6191 14.2079 17.6191 10C17.6191 5.79211 14.2079 2.38095 10 2.38095C5.79214 2.38095 2.38098 5.79211 2.38098 10C2.38098 14.2079 5.79214 17.619 10 17.619Z"
    stroke="white" stroke-width="2" stroke-linecap="round" stroke-linejoin="round" />
  <path
    d="M7.61907 8.57142C8.14505 8.57142 8.57145 8.14502 8.57145 7.61904C8.57145 7.09305 8.14505 6.66666 7.61907 6.66666C7.09308 6.66666 6.66669 7.09305 6.66669 7.61904C6.66669 8.14502 7.09308 8.57142 7.61907 8.57142Z"
    fill="white" />
  <path
    d="M12.381 8.57142C12.907 8.57142 13.3334 8.14502 13.3334 7.61904C13.3334 7.09305 12.907 6.66666 12.381 6.66666C11.855 6.66666 11.4286 7.09305 11.4286 7.61904C11.4286 8.14502 11.855 8.57142 12.381 8.57142Z"
    fill="white" />
  <path fill-rule="evenodd" clip-rule="evenodd"
    d="M6.66669 10.7619C6.98378 12.9841 8.09489 14.0952 10 14.0952C11.9052 14.0952 13.0163 12.9841 13.3334 10.7619H6.66669Z"
    stroke="white" stroke-width="2" stroke-linecap="round" stroke-linejoin="round" />
</svg>