<svg width="30" height="31" viewBox="0 0 30 31" fill="none" xmlns="http://www.w3.org/2000/svg">
  <path
    d="M15.9124 27.0116H14.0863C13.6756 27.0115 13.2816 26.8484 12.9909 26.5583C12.7002 26.2681 12.5363 25.8745 12.5354 25.4637V23.4587C11.98 23.2858 11.444 23.0558 10.9361 22.7724L9.66194 24.0385C9.0667 24.6226 8.05831 24.617 7.47173 24.0317L6.18089 22.7328C5.89215 22.4412 5.73084 22.047 5.73235 21.6366C5.73386 21.2263 5.89806 20.8333 6.18894 20.5438L7.53615 19.2059C7.338 18.8061 7.17169 18.3912 7.03877 17.9652H5.03685C4.62602 17.9633 4.23263 17.7989 3.94253 17.508C3.65243 17.2171 3.48916 16.8232 3.48834 16.4124V14.5858C3.48867 14.1751 3.65188 13.7812 3.94218 13.4907C4.23247 13.2002 4.62615 13.0367 5.03685 13.036H7.04186C7.2145 12.4815 7.44451 11.9466 7.72816 11.4398L6.2354 9.93218C6.09147 9.78779 5.97765 9.61625 5.90056 9.42751C5.82347 9.23877 5.78464 9.0366 5.78633 8.83273C5.787 8.62941 5.82802 8.42825 5.90702 8.2409C5.98602 8.05355 6.10143 7.88375 6.24655 7.74134L7.54172 6.45236C8.13511 5.87012 9.15032 5.87632 9.73256 6.4598L11.2959 8.03742C11.6924 7.83921 12.1092 7.67197 12.5403 7.54004V5.53688C12.5403 4.68272 13.2353 3.98837 14.0888 3.98837H15.9173C16.3277 3.98903 16.7212 4.1524 17.0113 4.44268C17.3015 4.73296 17.4647 5.12645 17.4652 5.53688V7.54251C17.9125 7.6811 18.3472 7.85744 18.7647 8.06963L20.343 6.50625C20.9382 5.92153 21.9491 5.93021 22.5332 6.51368L23.8215 7.81196C24.1108 8.10122 24.2706 8.49082 24.2706 8.9083C24.2706 9.11187 24.2301 9.3134 24.1515 9.50118C24.0729 9.68897 23.9578 9.85926 23.8129 10.0022L22.3108 11.4949C22.5802 11.9867 22.7995 12.5046 22.9643 13.0397H24.9711C25.3816 13.0404 25.775 13.2038 26.0652 13.494C26.3553 13.7843 26.5185 14.1778 26.519 14.5882V16.4118C26.5189 16.8225 26.3558 17.2163 26.0656 17.507C25.7755 17.7976 25.3818 17.9613 24.9711 17.9621H22.9643C22.8263 18.4103 22.6495 18.8455 22.4359 19.2629L23.7732 20.6095C24.0619 20.895 24.2217 21.2852 24.2217 21.7058C24.2217 22.1183 24.0588 22.5061 23.7639 22.7984L22.4687 24.088C21.8735 24.6721 20.8564 24.661 20.2792 24.0794L19.0149 22.8053C18.5213 23.0766 18.0053 23.2964 17.4745 23.4606V25.4668C17.4675 25.8774 17.3002 26.2689 17.0082 26.5576C16.7163 26.8463 16.3229 27.0093 15.9124 27.0116ZM10.8425 22.0353L11.0389 22.1512C11.6246 22.4994 12.2535 22.7693 12.9095 22.9539L13.1244 23.014V25.4625C13.1244 25.9915 13.5561 26.422 14.0863 26.422H15.9124C16.1675 26.4206 16.4121 26.3195 16.5939 26.1404C16.7756 25.9613 16.8803 25.7183 16.8854 25.4631V23.0177L17.1004 22.9576C17.7365 22.7794 18.3467 22.5194 18.9158 22.184L19.1122 22.0682L20.696 23.6637C21.0534 24.0242 21.6846 24.0304 22.0544 23.6681L23.3483 22.3791C23.531 22.1982 23.632 21.9585 23.632 21.7046C23.632 21.4426 23.5341 21.2016 23.3564 21.0257L21.7106 19.3676L21.8153 19.1755C22.094 18.6627 22.3102 18.1281 22.4588 17.588L22.5189 17.3718H24.9711C25.5001 17.3718 25.9306 16.9407 25.9306 16.4105V14.587C25.9306 14.058 25.5001 13.6269 24.9711 13.6269H22.5195L22.4595 13.4114C22.2823 12.7741 22.0235 12.1625 21.6895 11.5916L21.5743 11.3946L23.3972 9.58283C23.5806 9.40073 23.6815 9.1604 23.6815 8.90644C23.6815 8.64629 23.5831 8.40473 23.404 8.22634L22.1157 6.92807C21.9335 6.75164 21.69 6.65269 21.4363 6.652C21.1827 6.6513 20.9387 6.74892 20.7555 6.92435L18.8706 8.79185L18.6786 8.68841C18.1751 8.41524 17.6426 8.19937 17.0911 8.04485L16.8755 7.98477V5.53688C16.8755 5.00791 16.445 4.57681 15.9161 4.57681H14.0876C13.5586 4.57681 13.1281 5.00729 13.1281 5.53688V7.98415L12.9126 8.04423C12.3737 8.19351 11.8577 8.40039 11.3777 8.65806L11.1838 8.76212L9.31384 6.87542C8.95397 6.51616 8.32155 6.51059 7.95425 6.8717L6.66031 8.15944C6.5702 8.24759 6.49855 8.35279 6.44952 8.46892C6.4005 8.58505 6.37508 8.70978 6.37477 8.83583C6.37369 8.96231 6.39778 9.08773 6.44564 9.20481C6.49349 9.32189 6.56415 9.42828 6.6535 9.51779L8.46402 11.3469L8.34819 11.542C8.00005 12.1269 7.73017 12.755 7.54544 13.4101L7.48536 13.6251H5.03685C4.50788 13.6251 4.0774 14.0562 4.0774 14.5858V16.4124C4.0774 16.942 4.50788 17.3743 5.03809 17.3762H7.48412L7.5442 17.5917C7.6879 18.1096 7.89416 18.6249 8.15865 19.1248L8.26085 19.3174L6.60456 20.9607C6.42435 21.1399 6.32256 21.3833 6.32151 21.6375C6.32047 21.8916 6.42025 22.1358 6.59899 22.3165L7.88921 23.6148C8.25342 23.9772 8.87964 23.9809 9.2488 23.6185L10.8425 22.0353Z"
    stroke="#9D9D9D" />
  <path
    d="M15.0037 20.0229C12.5094 20.0229 10.4808 17.9937 10.4808 15.5C10.4808 13.005 12.51 10.9759 15.0037 10.9759C17.498 10.9759 19.5278 13.0057 19.5278 15.5C19.5272 17.9943 17.498 20.0229 15.0037 20.0229ZM15.0037 11.5649C13.9605 11.5662 12.9604 11.9813 12.2229 12.719C11.4853 13.4567 11.0704 14.4568 11.0693 15.5C11.0706 16.5431 11.4855 17.5431 12.2231 18.2806C12.9606 19.0182 13.9606 19.4331 15.0037 19.4345C16.0469 19.4333 17.047 19.0184 17.7847 18.2808C18.5224 17.5433 18.9375 16.5432 18.9388 15.5C18.9373 14.4568 18.5222 13.4568 17.7846 12.7191C17.0469 11.9815 16.0469 11.5664 15.0037 11.5649Z"
    stroke="#9D9D9D" />
</svg>