<svg width="320" height="314" viewBox="0 0 320 314" fill="none" xmlns="http://www.w3.org/2000/svg">
<g clip-path="url(#clip0)">
<path opacity="0.3" d="M229.212 49.4546C256.389 65.3351 283.218 88.5451 293.845 119.084C304.297 149.624 298.548 187.318 279.385 213.844C260.048 240.37 227.122 255.552 192.977 268.815C158.657 281.903 123.118 293.072 99.4255 280.507C75.7329 267.942 63.8865 231.819 48.556 200.058C33.2255 168.297 14.4107 141.247 18.5918 118.037C22.7728 95.002 49.9497 76.1548 75.2102 59.9253C100.297 43.5212 123.641 29.9094 149.076 27.4662C174.51 24.8485 202.036 33.3996 229.212 49.4546Z" fill="#9F4FFF" fill-opacity="0.5"/>
<g opacity="0.7" clip-path="url(#clip1)">
<path d="M199.293 105.484C202.006 106.918 204.657 108.385 207.247 109.885" stroke="white" stroke-miterlimit="10"/>
<path d="M148.82 96.6025C160.651 99.1638 173.567 103.585 186.578 109.825C196.002 114.315 205.02 119.614 213.53 125.663" stroke="white" stroke-miterlimit="10"/>
<path d="M109.442 269.441H230.746" stroke="white" stroke-miterlimit="10"/>
<path d="M137.75 94.7069C141.306 95.1445 145.006 95.7768 148.82 96.6025" stroke="white" stroke-miterlimit="10"/>
<path d="M102.96 131.845C96.392 122.221 94.1358 113.129 97.5103 106.075C101.243 98.2735 111.233 94.2827 124.776 93.9887" stroke="white" stroke-miterlimit="10"/>
<path d="M241.27 153.34C246.745 162.163 248.443 170.436 245.321 176.963C242.573 182.706 236.433 186.384 227.981 188.043" stroke="white" stroke-miterlimit="10"/>
<path d="M213.53 125.663C219.016 129.559 224.202 133.862 229.043 138.537" stroke="white" stroke-miterlimit="10"/>
<path d="M99.3234 82.7104C110.226 80.3654 124.334 80.7823 140.112 83.8963" stroke="white" stroke-miterlimit="10"/>
<path d="M257.999 153.339C262.88 160.477 265.882 167.385 266.666 173.676" stroke="white" stroke-miterlimit="10"/>
<path d="M207.247 109.885C212.143 112.719 216.8 115.65 221.22 118.678" stroke="white" stroke-miterlimit="10"/>
<path d="M200.368 187.651C186.887 185.426 171.637 180.59 156.253 173.213C138.737 164.812 123.894 154.481 113.318 144.04" stroke="white" stroke-miterlimit="10"/>
<path d="M145.711 177.757C133.651 171.501 122.733 164.546 113.318 157.305" stroke="white" stroke-miterlimit="10"/>
<path d="M60.4585 79.9851C68.4437 79.9851 74.9169 73.5038 74.9169 65.5088C74.9169 57.5138 68.4437 51.0325 60.4585 51.0325C52.4733 51.0325 46 57.5138 46 65.5088C46 73.5038 52.4733 79.9851 60.4585 79.9851Z" fill="#9F4FFF"/>
<path d="M63.85 74.0873C71.8351 74.0873 78.3084 67.6061 78.3084 59.6111C78.3084 51.616 71.8351 45.1348 63.85 45.1348C55.8648 45.1348 49.3915 51.616 49.3915 59.6111C49.3915 67.6061 55.8648 74.0873 63.85 74.0873Z" stroke="white" stroke-miterlimit="10"/>
<path d="M261.48 126.22C266.126 126.22 269.892 122.449 269.892 117.797C269.892 113.146 266.126 109.375 261.48 109.375C256.834 109.375 253.068 113.146 253.068 117.797C253.068 122.449 256.834 126.22 261.48 126.22Z" fill="#F9F9F9"/>
<path d="M263.453 122.788C268.099 122.788 271.865 119.017 271.865 114.366C271.865 109.714 268.099 105.943 263.453 105.943C258.807 105.943 255.041 109.714 255.041 114.366C255.041 119.017 258.807 122.788 263.453 122.788Z" stroke="white" stroke-miterlimit="10"/>
<path d="M108.024 217.701C114.702 217.701 120.116 212.281 120.116 205.594C120.116 198.907 114.702 193.486 108.024 193.486C101.345 193.486 95.9313 198.907 95.9313 205.594C95.9313 212.281 101.345 217.701 108.024 217.701Z" fill="#F9F9F9"/>
<path d="M110.86 212.769C117.539 212.769 122.953 207.348 122.953 200.661C122.953 193.974 117.539 188.554 110.86 188.554C104.182 188.554 98.7678 193.974 98.7678 200.661C98.7678 207.348 104.182 212.769 110.86 212.769Z" stroke="white" stroke-miterlimit="10"/>
</g>
<path d="M253.447 59.2056C275.886 72.1891 287.623 103.452 290.385 133.861C293.147 164.27 286.588 193.995 271.053 216.375C255.346 238.755 230.49 253.617 204.944 260.109C179.399 266.43 152.99 264.38 123.992 258.742C94.8209 253.105 63.0611 243.709 44.4195 222.013C25.7779 200.145 20.427 165.978 32.337 140.865C44.0743 115.752 73.2449 99.8646 98.273 87.2227C123.301 74.5808 144.187 65.1848 171.113 58.1806C198.04 51.0054 231.008 46.0512 253.447 59.2056Z" fill="#9F4FFF" fill-opacity="0.2"/>
</g>
<defs>
<clipPath id="clip0">
<rect width="320" height="314" fill="white"/>
</clipPath>
<clipPath id="clip1">
<rect width="226" height="225" fill="white" transform="translate(46 45)"/>
</clipPath>
</defs>
</svg>
